<svg width="17" height="17" viewBox="0 0 17 17" fill="none" xmlns="http://www.w3.org/2000/svg">
<g id="Group 35">
<path id="Rectangle 42" d="M1.5 1H15.5C15.7761 1 16 1.22386 16 1.5C16 1.77614 15.7761 2 15.5 2H1.5C1.22386 2 1 1.77614 1 1.5C1 1.22386 1.22386 1 1.5 1Z" stroke="#5A5A5A" stroke-width="2"/>
<path id="Rectangle 44" d="M1.5 8H15.5C15.7761 8 16 8.22386 16 8.5C16 8.77614 15.7761 9 15.5 9H1.5C1.22386 9 1 8.77614 1 8.5C1 8.22386 1.22386 8 1.5 8Z" stroke="#5A5A5A" stroke-width="2"/>
<path id="Rectangle 43" d="M1.5 15H15.5C15.7761 15 16 15.2239 16 15.5C16 15.7761 15.7761 16 15.5 16H1.5C1.22386 16 1 15.7761 1 15.5C1 15.2239 1.22386 15 1.5 15Z" stroke="#5A5A5A" stroke-width="2"/>
</g>
</svg>
