<svg width="22" height="18" viewBox="0 0 22 18" fill="none" xmlns="http://www.w3.org/2000/svg">
<g id="Group 34">
<path id="Vector" d="M1 1H7C8.06087 1 9.07828 1.3746 9.82843 2.0414C10.5786 2.70819 11 3.61256 11 4.55556V17C11 16.2928 10.6839 15.6145 10.1213 15.1144C9.55871 14.6143 8.79565 14.3333 8 14.3333H1V1Z" stroke="#5A5A5A" stroke-width="2" stroke-linecap="round" stroke-linejoin="round"/>
<path id="Vector_2" d="M21 1H15C13.9391 1 12.9217 1.3746 12.1716 2.0414C11.4214 2.70819 11 3.61256 11 4.55556V17C11 16.2928 11.3161 15.6145 11.8787 15.1144C12.4413 14.6143 13.2044 14.3333 14 14.3333H21V1Z" stroke="#5A5A5A" stroke-width="2" stroke-linecap="round" stroke-linejoin="round"/>
</g>
</svg>
