<svg width="18" height="18" viewBox="0 0 18 18" fill="none" xmlns="http://www.w3.org/2000/svg">
<g id="print">
<path id="Vector" d="M4.19995 6.6V1H13.8V6.6" stroke="#5A5A5A" stroke-width="2" stroke-linecap="round" stroke-linejoin="round"/>
<path id="Vector_2" d="M4.2 13.8H2.6C2.17565 13.8 1.76869 13.6314 1.46863 13.3313C1.16857 13.0313 1 12.6243 1 12.2V8.19998C1 7.77563 1.16857 7.36866 1.46863 7.06861C1.76869 6.76855 2.17565 6.59998 2.6 6.59998H15.4C15.8243 6.59998 16.2313 6.76855 16.5314 7.06861C16.8314 7.36866 17 7.77563 17 8.19998V12.2C17 12.6243 16.8314 13.0313 16.5314 13.3313C16.2313 13.6314 15.8243 13.8 15.4 13.8H13.8" stroke="#5A5A5A" stroke-width="2" stroke-linecap="round" stroke-linejoin="round"/>
<path id="Vector_3" d="M13.8002 10.6H4.2002V17H13.8002V10.6Z" stroke="#5A5A5A" stroke-width="2" stroke-linecap="round" stroke-linejoin="round"/>
</g>
</svg>
