<svg width="20" height="20" viewBox="0 0 20 20" fill="none" xmlns="http://www.w3.org/2000/svg">
<path id="trash" d="M1 4.6H3M3 4.6H19M3 4.6V17.2C3 17.6774 3.21071 18.1352 3.58579 18.4728C3.96086 18.8104 4.46957 19 5 19H15C15.5304 19 16.0391 18.8104 16.4142 18.4728C16.7893 18.1352 17 17.6774 17 17.2V4.6H3ZM6 4.6V2.8C6 2.32261 6.21071 1.86477 6.58579 1.52721C6.96086 1.18964 7.46957 1 8 1H12C12.5304 1 13.0391 1.18964 13.4142 1.52721C13.7893 1.86477 14 2.32261 14 2.8V4.6M8 9.1V14.5M12 9.1V14.5" stroke="#C490E4" stroke-width="2" stroke-linecap="round" stroke-linejoin="round"/>
</svg>
