<svg width="11" height="14" viewBox="0 0 11 14" fill="none" xmlns="http://www.w3.org/2000/svg">
<g id="U">
<path d="M9.60298 7.472C9.60298 8.16267 9.44898 8.788 9.14098 9.348C8.84232 9.89867 8.38498 10.3373 7.76898 10.664C7.16232 10.9813 6.39232 11.14 5.45898 11.14C4.13365 11.14 3.12565 10.804 2.43498 10.132C1.74432 9.45067 1.39898 8.55467 1.39898 7.444V1.004H3.51298V7.122C3.51298 7.94333 3.68098 8.522 4.01698 8.858C4.35298 9.194 4.85232 9.362 5.51498 9.362C6.20565 9.362 6.70498 9.18 7.01298 8.816C7.33032 8.452 7.48898 7.88267 7.48898 7.108V1.004H9.60298V7.472Z" fill="#5A5A5A"/>
<path d="M0.208984 12.75H10.793V13.45H0.208984V12.75Z" fill="#5A5A5A"/>
</g>
</svg>
