<svg width="11" height="10" viewBox="0 0 11 10" fill="none" xmlns="http://www.w3.org/2000/svg">
<path id="B" d="M8.512 4.89C9.072 5.086 9.51067 5.394 9.828 5.814C10.1453 6.22467 10.304 6.724 10.304 7.312C10.304 8.17067 9.95867 8.83333 9.268 9.3C8.57733 9.76667 7.57867 10 6.272 10H0.98V0.199999H5.992C7.24267 0.199999 8.19467 0.433333 8.848 0.899999C9.50133 1.35733 9.828 1.978 9.828 2.762C9.828 3.22867 9.71133 3.64867 9.478 4.022C9.254 4.386 8.932 4.67533 8.512 4.89ZM3.724 2.202V4.092H5.628C6.56133 4.092 7.028 3.77467 7.028 3.14C7.028 2.51467 6.56133 2.202 5.628 2.202H3.724ZM6.048 7.998C7.01867 7.998 7.504 7.66667 7.504 7.004C7.504 6.34133 7.01867 6.01 6.048 6.01H3.724V7.998H6.048Z" fill="#5A5A5A"/>
</svg>
