<svg width="12" height="12" viewBox="0 0 12 12" fill="none" xmlns="http://www.w3.org/2000/svg">
<path id="Union" fill-rule="evenodd" clip-rule="evenodd" d="M7.64631 2.706C8.08631 2.80867 8.5043 2.95533 8.9003 3.146L9.5603 0.902C9.09097 0.681999 8.56297 0.513333 7.97631 0.395999C7.4043 0.263999 6.78097 0.197998 6.10631 0.197998C5.43164 0.197998 4.83031 0.285999 4.3023 0.461999C3.78897 0.623333 3.34897 0.857999 2.9823 1.166C2.6303 1.45933 2.35897 1.81133 2.1683 2.222C1.97764 2.618 1.8823 3.058 1.8823 3.542C1.8823 4.10431 1.97188 4.59031 2.15104 5H0V6H2.95883C3.32591 6.27428 3.79574 6.50361 4.3683 6.688L5.0503 6.886C5.43164 7.00333 5.73964 7.106 5.97431 7.194C6.22364 7.26733 6.4143 7.348 6.5463 7.436C6.67831 7.524 6.7663 7.61933 6.8103 7.722C6.86897 7.81 6.8983 7.92 6.8983 8.052C6.8983 8.272 6.78097 8.46267 6.5463 8.624C6.3263 8.78533 5.93764 8.866 5.3803 8.866C4.89631 8.866 4.41964 8.8 3.9503 8.668C3.49564 8.52133 3.05564 8.338 2.6303 8.118L1.9263 10.472C2.42497 10.7213 2.9603 10.912 3.5323 11.044C4.11897 11.176 4.7863 11.242 5.5343 11.242C6.22364 11.242 6.84697 11.1613 7.4043 11C7.97631 10.8387 8.46031 10.604 8.85631 10.296C9.26697 9.988 9.5823 9.62133 9.80231 9.196C10.0223 8.756 10.1323 8.272 10.1323 7.744C10.1323 7.05008 9.95779 6.46874 9.60875 6H12V5H8.36544C8.0909 4.8624 7.78518 4.74306 7.44831 4.642L6.78831 4.444C6.11364 4.25333 5.65897 4.07733 5.4243 3.916C5.2043 3.74 5.09431 3.52733 5.09431 3.278C5.09431 3.04333 5.21164 2.86 5.4463 2.728C5.68097 2.596 5.98897 2.53 6.37031 2.53C6.78097 2.53 7.20631 2.58867 7.64631 2.706Z" fill="#5A5A5A"/>
</svg>
