<svg width="18" height="18" viewBox="0 0 18 18" fill="none" xmlns="http://www.w3.org/2000/svg">
<path d="M1 4.19995H2.77778H17" stroke="#5A5A5A" stroke-width="2" stroke-linecap="round" stroke-linejoin="round"/>
<path d="M5.44445 4.2V2.6C5.44445 2.17565 5.63175 1.76869 5.96514 1.46863C6.29854 1.16857 6.75073 1 7.22222 1H10.7778C11.2493 1 11.7015 1.16857 12.0349 1.46863C12.3683 1.76869 12.5556 2.17565 12.5556 2.6V4.2M15.2222 4.2V15.4C15.2222 15.8243 15.0349 16.2313 14.7015 16.5314C14.3681 16.8314 13.9159 17 13.4444 17H4.55556C4.08406 17 3.63188 16.8314 3.29848 16.5314C2.96508 16.2313 2.77778 15.8243 2.77778 15.4V4.2H15.2222Z" stroke="#5A5A5A" stroke-width="2" stroke-linecap="round" stroke-linejoin="round"/>
</svg>
